<svg width="16" height="16" viewBox="0 0 16 16" fill="none" xmlns="http://www.w3.org/2000/svg">
<path d="M16 4.74542L11.6267 8.89078L10.3467 9.87257C8.96 10.9635 7.04 10.9635 5.65333 9.87257L4.48 8.89078L0 4.74542C0.106667 3.76362 0.96 3 1.92 3H14.08C15.04 3 15.8933 3.76362 16 4.74542Z" fill="#27509B"/>
<path d="M3.30667 9.32694L0 12.2723V6.27246L3.30667 9.32694Z" fill="#27509B"/>
<path d="M16 13.7998C15.8933 14.5634 15.36 14.9998 14.6133 14.9998H1.38667C0.64 14.9998 0.106667 14.4544 0 13.7998L4.05333 10.0908L4.90667 10.8544C6.72 12.2726 9.17333 12.2726 10.88 10.8544L11.7333 10.0908L16 13.7998Z" fill="#27509B"/>
<path d="M16 6.27246V12.2723L12.6934 9.32694L16 6.27246Z" fill="#27509B"/>
</svg>
