<svg width="268" height="42" viewBox="0 0 268 42" fill="none" xmlns="http://www.w3.org/2000/svg">
<path fill-rule="evenodd" clip-rule="evenodd" d="M0 27.0386C0 27.0386 8.26595 27.1864 11.9288 27.8338C23.5919 29.8749 23.8576 40.5579 23.8576 40.5579C23.8576 40.5579 21.7118 40.5579 16.7003 40.5579C5.01344 40.5579 0 27.0386 0 27.0386Z" fill="#2DAA55"/>
<path fill-rule="evenodd" clip-rule="evenodd" d="M49.3057 27.0386C49.3057 27.0386 41.0428 27.1864 37.3769 27.8338C25.7164 29.8749 25.4481 40.5579 25.4481 40.5579C25.4481 40.5579 27.5931 40.5579 32.6054 40.5579C44.2966 40.5579 49.3057 27.0386 49.3057 27.0386Z" fill="#2DAA55"/>
<path fill-rule="evenodd" clip-rule="evenodd" d="M29.4243 26.2437C29.4243 28.6592 27.8634 30.2199 25.448 30.2199C23.0318 30.2199 20.6765 28.6592 20.6765 26.2437C20.6765 23.828 23.0318 21.4722 25.448 21.4722C27.8634 21.4722 29.4243 23.828 29.4243 26.2437Z" fill="#004A86"/>
<path fill-rule="evenodd" clip-rule="evenodd" d="M38.1721 21.4722C38.1721 23.8877 36.6112 25.4485 34.1958 25.4485C31.7796 25.4485 29.4243 23.8877 29.4243 21.4722C29.4243 19.0565 31.7796 16.7007 34.1958 16.7007C36.6112 16.7007 38.1721 19.0565 38.1721 21.4722Z" fill="#004A86"/>
<path fill-rule="evenodd" clip-rule="evenodd" d="M34.1959 4.77151C34.1959 7.18713 32.635 8.74777 30.2196 8.74777C27.8035 8.74777 25.4481 7.18713 25.4481 4.77151C25.4481 2.35588 27.8035 0 30.2196 0C32.635 0 34.1959 2.35588 34.1959 4.77151Z" fill="#004A86"/>
<path fill-rule="evenodd" clip-rule="evenodd" d="M23.8575 4.77151C23.8575 7.18713 22.2966 8.74777 19.8813 8.74777C17.4651 8.74777 15.1097 7.18713 15.1097 4.77151C15.1097 2.35588 17.4651 0 19.8813 0C22.2966 0 23.8575 2.35588 23.8575 4.77151Z" fill="#004A86"/>
<path fill-rule="evenodd" clip-rule="evenodd" d="M19.8813 21.4722C19.8813 23.8877 18.3205 25.4485 15.9051 25.4485C13.4888 25.4485 11.1335 23.8877 11.1335 21.4722C11.1335 19.0565 13.4888 16.7007 15.9051 16.7007C18.3205 16.7007 19.8813 19.0565 19.8813 21.4722Z" fill="#004A86"/>
<path fill-rule="evenodd" clip-rule="evenodd" d="M40.5578 12.7241C40.5578 15.1398 38.9969 16.7004 36.5816 16.7004C34.1654 16.7004 31.8101 15.1398 31.8101 12.7241C31.8101 10.3085 34.1654 7.95264 36.5816 7.95264C38.9969 7.95264 40.5578 10.3085 40.5578 12.7241Z" fill="#004A86"/>
<path fill-rule="evenodd" clip-rule="evenodd" d="M18.2907 12.7241C18.2907 15.1398 16.7299 16.7004 14.3145 16.7004C11.8983 16.7004 9.54297 15.1398 9.54297 12.7241C9.54297 10.3085 11.8983 7.95264 14.3145 7.95264C16.7299 7.95264 18.2907 10.3085 18.2907 12.7241Z" fill="#004A86"/>
<path fill-rule="evenodd" clip-rule="evenodd" d="M71.5727 36.582C66.8166 36.6215 58.8486 35.828 58.8486 26.2437C58.8486 16.7758 66.8166 14.9544 71.5727 15.1102V11.9292H79.5252V15.1102C84.2812 14.9544 93.0445 16.7758 93.0445 26.2437C93.0445 35.828 84.2812 36.6215 79.5252 36.582V40.5583H71.5727V36.582ZM72.3679 20.677C70.4261 20.6383 66.8012 21.4121 66.8012 26.2437C66.8012 31.0744 70.4261 31.0537 72.3679 31.0153V20.677ZM79.5252 31.0153C81.467 31.0537 85.092 31.0744 85.092 26.2437C85.092 21.4121 81.467 20.6383 79.5252 20.677V31.0153ZM95.4302 27.039C95.4302 19.7532 100.394 12.7245 110.54 12.7245C120.686 12.7245 125.65 19.7532 125.65 27.039C125.65 34.3264 120.686 41.3535 110.54 41.3535C100.394 41.3535 95.4302 34.3264 95.4302 27.039ZM117.697 27.039C117.697 21.7801 114.146 19.0865 110.54 19.0865C106.933 19.0865 103.383 21.7801 103.383 27.039C103.383 32.2994 106.933 34.9915 110.54 34.9915C114.146 34.9915 117.697 32.2994 117.697 27.039ZM150.303 38.9678C147.805 40.643 144.727 41.3535 142.35 41.3535C134.106 41.3535 128.036 35.7671 128.036 27.039C128.036 17.9221 134.82 12.7245 142.35 12.7245C144.807 12.7245 147.964 12.7569 150.303 14.315V22.2675C148.876 20.6315 146.116 19.0865 143.145 19.0865C138.864 19.0865 135.988 22.5585 135.988 27.039C135.988 31.1702 138.706 34.1963 143.145 34.1963C146.037 34.1963 148.876 33.2521 150.303 31.8105V38.9678ZM162.231 13.5197H170.979L181.317 40.5583H172.57L170.979 35.7868H162.231L160.641 40.5583H151.893L162.231 13.5197ZM163.027 30.22H169.389L166.208 19.8817L163.027 30.22ZM183.703 13.5197H200.404V19.8817H191.656V40.5583H183.703V13.5197ZM203.585 13.5197H215.513C223.4 13.5197 225.056 18.5273 225.056 22.2675C225.056 26.0469 223.361 31.8105 215.513 31.8105H211.537V40.5583H203.585V13.5197ZM211.537 25.4485H213.923C217.373 25.4485 217.104 23.4367 217.104 22.2675C217.104 20.9038 217.253 19.0865 213.923 19.0865H211.537V25.4485ZM228.237 27.039C228.237 19.7532 232.407 12.7245 242.552 12.7245C252.697 12.7245 257.662 19.7532 257.662 27.039C257.662 34.3264 252.697 41.3535 242.552 41.3535C232.407 41.3535 228.237 34.3264 228.237 27.039ZM249.709 27.039C249.709 21.7801 246.157 19.0865 242.552 19.0865C238.945 19.0865 236.19 21.7801 236.19 27.039C236.19 32.2994 238.945 34.9915 242.552 34.9915C246.157 34.9915 249.709 32.2994 249.709 27.039ZM268 15.9055C268 18.3639 265.754 20.677 263.228 20.677C260.704 20.677 259.252 18.3639 259.252 15.9055C259.252 13.4351 260.704 11.9292 263.228 11.9292C265.754 11.9292 268 13.4351 268 15.9055ZM260.047 15.9055C260.047 17.9839 261.078 19.8817 263.228 19.8817C265.379 19.8817 267.205 17.9839 267.205 15.9055C267.205 13.815 265.379 12.7245 263.228 12.7245C261.078 12.7245 260.047 13.815 260.047 15.9055ZM263.228 13.5197C263.784 13.5197 265.614 13.6967 265.614 15.1102C265.614 15.87 264.675 16.5706 264.024 16.7007L265.614 19.0865H264.819L263.228 16.7007V19.0865H262.433V13.5197H263.228ZM263.228 15.9055C263.591 15.9055 264.024 15.7993 264.024 15.1102C264.024 14.3858 263.555 14.315 263.228 14.315V15.9055Z" fill="#004A86"/>
</svg>
