<svg width="16" height="18" viewBox="0 0 16 18" fill="none" xmlns="http://www.w3.org/2000/svg">
<path fill-rule="evenodd" clip-rule="evenodd" d="M4.08562 1.74285C3.79728 1.03441 3.477 1.0172 3.20463 1.0172C2.96418 1 2.70684 1 2.43447 1C2.179 1 1.74602 1.10322 1.37784 1.53536C1.00873 1.9665 0 2.98564 0 5.07451C0 7.16446 1.40978 9.18447 1.60232 9.46076C1.79391 9.73705 4.32605 14.1567 8.33273 15.867C11.6651 17.2829 12.3386 17.0066 13.0598 16.9195C13.7802 16.8336 15.3835 15.9014 15.7197 14.8995C16.0401 13.9158 16.0401 13.0525 15.9442 12.8793C15.8483 12.7074 15.5751 12.6031 15.191 12.3785C14.79 12.1719 12.8673 11.1356 12.4991 10.9971C12.13 10.8593 11.8736 10.7905 11.6172 11.2045C11.3608 11.6366 10.6075 12.5859 10.3681 12.8622C10.1427 13.1385 9.90313 13.1729 9.51812 12.9655C9.11801 12.7589 7.85187 12.3096 6.34537 10.8593C5.17509 9.73602 4.38992 8.3383 4.14947 7.92447C3.92594 7.4923 4.11754 7.26757 4.32605 7.06014C4.50263 6.87087 4.7271 6.56015 4.91963 6.31829C5.11119 6.0754 5.17509 5.88613 5.31975 5.60984C5.44755 5.33358 5.38365 5.07451 5.28779 4.86805C5.19114 4.67778 4.43876 2.58891 4.08562 1.74285Z" fill="#27509B"/>
</svg>
