<svg width="221" height="141" viewBox="0 0 221 141" fill="none" xmlns="http://www.w3.org/2000/svg">
<path d="M13 129C14.6216 129 15.5135 128.496 16 128C16.2107 127.885 16.8776 128.206 17 128C17.1224 127.794 17 127.239 17 127C17 126.761 17.1224 127.206 17 127C16.8776 126.794 16.2107 126.115 16 126C15.5322 125.504 14.6403 125 13 125H6V129H13ZM6 140H0V135V126V121H16C18.7068 121 21.0146 121.058 22 122C22.5084 122.541 22.748 123.303 23 124C23.252 124.697 23.0454 125.261 23 126V128C23.0471 128.738 23.2521 129.304 23 130C22.7479 130.696 22.5098 131.461 22 132C21.0146 132.936 18.7068 133 16 133H6V140Z" fill="#1D1D1F"/>
<path d="M44 128C44.0704 127.175 43.5186 126.648 43 126C42.5326 125.504 41.5705 125 40 125H37C35.5417 125 34.4986 125.473 34 126C33.7368 126.304 33.1262 126.619 33 127C32.8738 127.381 32.9699 127.6 33 128V133C32.9431 133.794 33.4799 134.396 34 135C34.4986 135.546 35.5417 136 37 136H40C41.5705 136 42.5388 135.471 43 135C43.4782 134.347 44.0131 133.808 44 133V128ZM48 139C47.034 139.911 45.6798 140 43 140H34C31.3264 140 29.9847 139.955 29 139C28.0153 138.045 27 136.81 27 135V126C27 124.177 27.9343 122.911 29 122C30.0657 121.089 31.3264 121 34 121H43C45.6798 121 47.034 121.058 48 122C48.5183 122.536 49.7405 123.302 50 124C50.2595 124.698 50.0426 125.257 50 126V135C50.0443 135.747 50.2595 136.297 50 137C49.7405 137.703 48.5201 138.459 48 139Z" fill="#1D1D1F"/>
<path d="M75 139C74.0162 139.911 72.6711 140 70 140H61C58.3289 140 57.0709 139.955 56 139C54.9291 138.045 54 136.81 54 135V126C54 124.177 54.9664 122.911 56 122C57.0336 121.089 58.304 121 61 121H70C72.6711 121 74.0162 121.058 75 122C75.5238 122.532 76.7403 123.301 77 124C77.2597 124.699 77.0499 125.257 77 126V128H71C71.0693 127.178 70.5059 126.653 70 126C69.5206 125.504 68.5815 125 67 125H64C62.5368 125 61.523 125.473 61 126C60.467 126.613 59.9499 127.191 60 128V133C59.9597 133.797 60.4762 134.396 61 135C61.523 135.546 62.5368 136 64 136H67C68.5815 136 69.5206 135.471 70 135C70.5044 134.358 71.0681 133.812 71 133H77V135C77.0516 135.748 77.2596 136.296 77 137C76.7404 137.704 75.5256 138.463 75 139Z" fill="#1D1D1F"/>
<path d="M87 140H81V135V126V121H87V128H98V121H104V140H98V133H87V140Z" fill="#1D1D1F"/>
<path d="M116 133H114C113.966 133.828 114.465 134.364 115 135C115.486 135.546 116.523 136 118 136H131V140H115C112.321 140 111.084 139.955 110 139C108.916 138.045 108 136.81 108 135V126C108 124.177 108.984 122.911 110 122C111.016 121.089 112.302 121 115 121H131V125H118C116.523 125 115.474 125.473 115 126C114.476 126.59 113.976 127.213 114 128H131V133H116Z" fill="#1D1D1F"/>
<path d="M178 125H170V121H193V125H184V140H178V125Z" fill="#1D1D1F"/>
<path d="M203 132V136H210C211.601 136 212.539 135.465 213 135C213.352 134.698 213.908 134.454 214 134C213.925 133.533 213.366 133.301 213 133C212.539 132.485 211.601 132 210 132H203ZM203 128H213C215.679 128 217.022 128.038 218 129C218.978 129.962 220 131.232 220 133V135C220.049 135.741 220.258 136.303 220 137C219.742 137.697 218.52 138.467 218 139C217.022 139.943 215.679 140 213 140H197V135V126V121H203V128Z" fill="#1D1D1F"/>
<path d="M141 130C141 127.54 143 128 143 128H149V132H143C143 132 141 132.042 141 130ZM161 132H155V128H161C161 128 163 127.54 163 130C163 132.042 161 132 161 132ZM165 124H155V121H149V124H140C140 124 134 124.014 134 130C134 135.986 140 136 140 136H149V141H155V136H164C164 136 170 136.031 170 130C170 123.969 165 124 165 124Z" fill="#1D1D1F"/>
<path d="M98 0V9H88V18H78V27H68V58C68 58 85.4791 72.7712 88 75V108H132V76C134.527 73.8092 152 58 152 58V27H142V18H132V9H122V0H98Z" fill="white"/>
<path d="M105 61H96V101H105V61Z" fill="#FFD300"/>
<path d="M115 52H106V101H115V52Z" fill="#FFD300"/>
<path d="M125 61H116V101H125V61Z" fill="#FFD300"/>
<path d="M84 62L75 55V34H84V62Z" fill="#1D1D1F"/>
<path d="M94 71L85 63V25H94V71Z" fill="#1D1D1F"/>
<path d="M105 16H96V59H105V16Z" fill="#1D1D1F"/>
<path d="M115 7H106V50H115V7Z" fill="#1D1D1F"/>
<path d="M136 62L145 55V34H136V62Z" fill="#1D1D1F"/>
<path d="M126 71L135 63V25H126V71Z" fill="#1D1D1F"/>
<path d="M125 16H116V59H125V16Z" fill="#1D1D1F"/>
</svg>
