<svg width="254" height="50" viewBox="0 0 254 50" fill="none" xmlns="http://www.w3.org/2000/svg">
<path d="M48.1291 21.0391C48.1291 21.0391 49.0088 7.38699 49.1291 6.03915C49.1641 5.25551 49.3951 4.77456 49.1291 4.03915C48.8631 3.30373 47.6539 2.60946 47.1291 2.03915C46.6043 1.46883 46.8292 1.35372 46.1291 1.03915C45.4289 0.724571 43.8933 0.0479906 43.1291 0.0391474H10.1291C8.56841 -0.0718797 6.31649 -0.00630009 5.12909 1.03915C3.94169 2.08459 3.25966 4.43906 3.12909 6.03915C2.97872 7.6545 0.299504 40.1254 0.129088 42.0391C0.0290871 42.8541 -0.102913 44.253 0.129088 45.0391C0.361089 45.8253 0.605297 46.4181 1.12909 47.0391C1.65288 47.6602 2.40429 47.6908 3.12909 48.0391C3.85389 48.3875 5.32891 49.0239 6.12909 49.0391H39.1291C43.6 49.0391 45.7482 46.7843 46.1291 43.0391C46.3596 40.7962 47.1291 27.0391 47.1291 27.0391H27.1291L26.1291 38.0391H21.1291L23.1291 12.0391H28.1291L27.1291 21.0391H48.1291Z" fill="#008C95"/>
<path d="M79.1289 4.0393C78.4073 6.17913 72.1289 25.0393 72.1289 25.0393L75.1289 0.0393008H54.1289L50.1289 49.0393H65.1289C68.9774 49.0393 70.4875 46.8396 71.1289 45.0393C71.9006 42.8995 78.1289 27.0393 78.1289 27.0393L75.1289 49.0393H96.1289L100.129 0.0393008H84.1289C82.9017 0.0301555 82.1103 0.282858 81.1289 1.0393C80.1476 1.79574 79.4626 2.82701 79.1289 4.0393Z" fill="#008C95"/>
<path d="M183.129 0.0390625L181.129 22.0391H176.129L178.129 0.0390625H157.129C157.129 0.0390625 155.34 23.7645 155.129 26.0391C154.888 28.7664 156.625 33.0391 161.129 33.0391H180.129L179.129 38.0391H154.129L153.129 49.0391H194.129C196.877 49.0391 198.768 46.9706 199.129 43.0391C199.36 40.5175 203.129 0.0390625 203.129 0.0390625H183.129Z" fill="#008C95"/>
<path d="M235.129 0.0390625H208.129L204.129 49.0391H224.129L225.129 34.0391H245.129C248.594 34.0391 250.752 32.2391 251.129 28.0391C251.268 26.4023 253.03 7.67583 253.129 6.03906C253.377 2.41553 250.555 0.0390625 247.129 0.0390625H235.129ZM226.129 24.0391L227.129 12.0391H232.129L231.129 24.0391H226.129Z" fill="#008C95"/>
<path d="M125.129 16.0391L126.129 11.0391H151.129L152.129 0.0390625H106.129L102.129 49.0391H143.129C145.714 49.0391 147.768 47.1361 148.129 43.0391C148.399 39.9508 149.898 25.6847 150.129 23.0391C150.429 19.5082 148.407 16.0391 144.129 16.0391H125.129ZM128.129 39.0391H123.129L124.129 27.0391H129.129L128.129 39.0391Z" fill="#008C95"/>
</svg>
